<svg width="20" height="20" viewBox="0 0 20 20" fill="none" xmlns="http://www.w3.org/2000/svg">
<path fill-rule="evenodd" clip-rule="evenodd" d="M6.31674 0.046101C6.60374 0.115706 6.86487 0.262152 7.07045 0.468739L19.5559 13.0158C20.1626 13.6255 20.1455 14.5974 19.5177 15.1866C19.3248 15.3677 19.0875 15.4981 18.8284 15.5656L1.98991 19.9473C1.14662 20.1667 0.279821 19.6808 0.0538629 18.8618C-0.0155859 18.6101 -0.0179137 18.3453 0.047097 18.0925L4.40007 1.16363C4.61159 0.341021 5.46971 -0.15932 6.31674 0.046101ZM7.74924 6.67695C7.35598 6.58157 6.95793 6.79045 6.8184 7.15009L6.7909 7.23569L5.27138 13.1451C5.23888 13.2715 5.24005 13.4039 5.27477 13.5298C5.37968 13.91 5.76087 14.1467 6.15238 14.0908L6.24279 14.0726L12.1207 12.543C12.2503 12.5093 12.3689 12.4441 12.4654 12.3535C12.7551 12.0816 12.7847 11.6466 12.5489 11.3415L12.4845 11.2681L8.12609 6.88824C8.0233 6.78495 7.89274 6.71175 7.74924 6.67695Z" fill="#FF7500"/>
</svg>
