<svg width="20" height="20" viewBox="0 0 20 20" fill="none" xmlns="http://www.w3.org/2000/svg">
<path fill-rule="evenodd" clip-rule="evenodd" d="M8.36036 0.0148607C8.53013 0.0476621 8.68402 0.133815 8.7982 0.259996L12.6449 4.51095C12.8157 4.69979 13.0715 4.79497 13.3288 4.76552L19.1206 4.10251C19.5523 4.05309 19.9436 4.35244 19.9946 4.77111C20.0149 4.93783 19.9779 5.10639 19.8895 5.25069L16.9091 10.112C16.7767 10.328 16.7624 10.5933 16.8708 10.8215L19.3108 15.9583C19.4927 16.3412 19.32 16.7946 18.9252 16.971C18.7679 17.0412 18.5912 17.0592 18.4224 17.0222L12.7338 15.7758C12.4811 15.7204 12.2164 15.7891 12.0261 15.9596L7.74236 19.7973C7.42304 20.0834 6.92503 20.0643 6.63003 19.7546C6.51256 19.6313 6.44029 19.4739 6.42439 19.3067L5.88897 13.675C5.86518 13.4249 5.71597 13.2021 5.48997 13.0792L0.402458 10.3143C0.0232243 10.1082 -0.111911 9.64295 0.100624 9.27519C0.185257 9.12874 0.317311 9.01344 0.476343 8.94712L5.83402 6.713C6.07202 6.61375 6.24443 6.4073 6.29505 6.1609L7.43458 0.614316C7.51953 0.200862 7.93401 -0.0675132 8.36036 0.0148607ZM9.78351 6.4707L9.35369 8.56282C9.30939 8.77842 9.17186 8.96343 8.97873 9.0728L8.89266 9.11492L6.87181 9.9576L8.79076 11.0005C8.98851 11.108 9.12746 11.292 9.17505 11.5039L9.18975 11.5963L9.39171 13.7205L11.0075 12.273C11.174 12.1238 11.3974 12.0525 11.62 12.0741L11.7151 12.0891L13.8608 12.5593L12.9405 10.6217C12.8456 10.4221 12.8447 10.194 12.9347 9.99541L12.9788 9.91227L14.1029 8.07863L11.9184 8.3287C11.6932 8.35448 11.4693 8.28481 11.3023 8.14048L11.2344 8.07411L9.78351 6.4707Z" fill="#00AA13"/>
</svg>
