<svg width="20" height="20" viewBox="0 0 20 20" fill="none" xmlns="http://www.w3.org/2000/svg">
<path d="M13.3492 0.0994924C14.8956 -0.314863 16.4851 0.602839 16.8995 2.14923L19.9005 13.3492C20.3149 14.8956 19.3972 16.4851 17.8508 16.8995L6.65077 19.9005C5.10438 20.3149 3.51488 19.3972 3.10053 17.8508L0.0994927 6.65077C-0.314863 5.10438 0.602839 3.51488 2.14923 3.10053L13.3492 0.0994924ZM11.6746 5.04975L6.07462 6.55026C5.33657 6.74802 4.88493 7.48115 5.02559 8.21987L5.04975 8.32539L6.55026 13.9254C6.74802 14.6634 7.48115 15.1151 8.21987 14.9744L8.32539 14.9502L13.9254 13.4497C14.6634 13.252 15.1151 12.5188 14.9744 11.7801L14.9502 11.6746L13.4497 6.07462C13.252 5.33657 12.5188 4.88493 11.7801 5.02559L11.6746 5.04975Z" fill="#D8D8D8"/>
<path d="M13.3492 0.0994924C14.8956 -0.314863 16.4851 0.602839 16.8995 2.14923L19.9005 13.3492C20.3149 14.8956 19.3972 16.4851 17.8508 16.8995L6.65077 19.9005C5.10438 20.3149 3.51488 19.3972 3.10053 17.8508L0.0994927 6.65077C-0.314863 5.10438 0.602839 3.51488 2.14923 3.10053L13.3492 0.0994924ZM11.6746 5.04975L6.07462 6.55026C5.33657 6.74802 4.88493 7.48115 5.02559 8.21987L5.04975 8.32539L6.55026 13.9254C6.74802 14.6634 7.48115 15.1151 8.21987 14.9744L8.32539 14.9502L13.9254 13.4497C14.6634 13.252 15.1151 12.5188 14.9744 11.7801L14.9502 11.6746L13.4497 6.07462C13.252 5.33657 12.5188 4.88493 11.7801 5.02559L11.6746 5.04975Z" fill="url(#paint0_linear_26_39)"/>
<defs>
<linearGradient id="paint0_linear_26_39" x1="20" y1="20" x2="0" y2="0" gradientUnits="userSpaceOnUse">
<stop stop-color="#97D700"/>
<stop offset="1" stop-color="#00AA13"/>
</linearGradient>
</defs>
</svg>
