<svg width="20" height="20" viewBox="0 0 20 20" fill="none" xmlns="http://www.w3.org/2000/svg">
<path fill-rule="evenodd" clip-rule="evenodd" d="M8.36036 0.0148598C8.53013 0.0476619 8.68402 0.133837 8.79821 0.260018L12.6449 4.51095C12.8157 4.69978 13.0715 4.79499 13.3288 4.76554L19.1206 4.10253C19.5523 4.05311 19.9436 4.35246 19.9946 4.77113C20.0149 4.93785 19.9779 5.10641 19.8895 5.25071L16.9091 10.112C16.7768 10.328 16.7624 10.5933 16.8708 10.8215L19.3108 15.9583C19.4927 16.3412 19.32 16.7946 18.9252 16.971C18.7679 17.0412 18.5912 17.0592 18.4224 17.0222L12.7338 15.7757C12.4811 15.7204 12.2164 15.7891 12.0261 15.9596L7.74236 19.7974C7.42304 20.0834 6.92504 20.0643 6.63004 19.7546C6.51257 19.6313 6.4403 19.4739 6.42441 19.3067L5.88897 13.675C5.86518 13.4249 5.71598 13.2021 5.48998 13.0792L0.402458 10.3143C0.0232249 10.1082 -0.111911 9.64294 0.100624 9.27518C0.185257 9.12874 0.317317 9.01343 0.476349 8.94712L5.83402 6.71302C6.07202 6.61377 6.24443 6.40731 6.29505 6.16092L7.43458 0.614338C7.51953 0.200884 7.93401 -0.0675142 8.36036 0.0148598ZM9.78351 6.47072L9.3537 8.56284C9.3094 8.77843 9.17186 8.96344 8.97873 9.07282L8.89266 9.11493L6.87181 9.95761L8.79076 11.0005C8.98851 11.108 9.12746 11.292 9.17505 11.5039L9.18976 11.5963L9.39171 13.7205L11.0075 12.273C11.174 12.1238 11.3974 12.0525 11.62 12.0741L11.7151 12.0891L13.8608 12.5593L12.9405 10.6217C12.8456 10.4221 12.8447 10.194 12.9347 9.99542L12.9788 9.91228L14.1029 8.07865L11.9184 8.32872C11.6932 8.35449 11.4693 8.28483 11.3023 8.1405L11.2344 8.07413L9.78351 6.47072Z" fill="#FFC600"/>
</svg>
