<svg width="20" height="20" viewBox="0 0 20 20" fill="none" xmlns="http://www.w3.org/2000/svg">
<path fill-rule="evenodd" clip-rule="evenodd" d="M8.17007 0.0144208C8.33598 0.0462512 8.48637 0.129854 8.59795 0.2523L12.3571 4.37742C12.524 4.56067 12.774 4.65303 13.0254 4.62445L18.6854 3.98107C19.1073 3.93311 19.4897 4.2236 19.5395 4.62988C19.5593 4.79166 19.5232 4.95523 19.4367 5.09526L16.5243 9.81269C16.3949 10.0223 16.3809 10.2797 16.4868 10.5011L18.8713 15.4859C19.049 15.8575 18.8803 16.2974 18.4944 16.4686C18.3408 16.5368 18.1681 16.5542 18.003 16.5183L12.4439 15.3088C12.197 15.255 11.9384 15.3218 11.7524 15.4872L7.56614 19.2113C7.25408 19.4889 6.76741 19.4704 6.47913 19.1699C6.36433 19.0502 6.2937 18.8974 6.27817 18.7352L5.75493 13.2702C5.73169 13.0275 5.58587 12.8112 5.36501 12.6921L0.393298 10.009C0.0226957 9.80894 -0.109364 9.3575 0.0983339 9.00063C0.18104 8.85852 0.310089 8.74662 0.465501 8.68227L5.70123 6.51428C5.93382 6.41797 6.1023 6.21763 6.15177 5.97853L7.26536 0.596131C7.34837 0.194916 7.75342 -0.0655147 8.17007 0.0144208ZM9.56083 6.27916L9.14079 8.30935C9.0975 8.51856 8.9631 8.69809 8.77436 8.80423L8.69025 8.8451L6.7154 9.66284L8.59067 10.6749C8.78392 10.7792 8.91971 10.9577 8.96621 11.1634L8.98058 11.253L9.17795 13.3144L10.757 11.9097C10.9197 11.7649 11.138 11.6958 11.3555 11.7167L11.4485 11.7312L13.5453 12.1875L12.6459 10.3073C12.5532 10.1135 12.5524 9.89222 12.6403 9.69952L12.6834 9.61884L13.7819 7.83949L11.6471 8.08216C11.4271 8.10717 11.2082 8.03956 11.0451 7.89951L10.9787 7.8351L9.56083 6.27916Z" fill="#00AA13"/>
</svg>
