<svg width="20" height="20" viewBox="0 0 20 20" fill="none" xmlns="http://www.w3.org/2000/svg">
<path fill-rule="evenodd" clip-rule="evenodd" d="M9.72435 0.196233L18.0612 3.32252C19.2833 3.78081 20.0643 4.95575 19.9958 6.23282L19.5285 14.9446C19.46 16.2216 18.5575 17.3104 17.293 17.6414L8.66735 19.8992C7.40289 20.2302 6.06406 19.7281 5.35109 18.6556L0.487496 11.3393C-0.225473 10.2668 -0.150423 8.86778 0.6734 7.87395L6.2932 1.09437C7.11702 0.100534 8.50224 -0.262058 9.72435 0.196233ZM10.0682 4.8017C9.49532 4.58688 8.85078 4.73279 8.43305 5.16132L8.35261 5.25077L5.26328 8.97766C4.87883 9.44145 4.82051 10.0817 5.10428 10.601L5.17033 10.7103L7.84396 14.7323C8.17816 15.235 8.78739 15.4871 9.38318 15.3803L9.50208 15.3541L14.2438 14.1129C14.8365 13.9577 15.2702 13.4696 15.3503 12.883L15.3615 12.7645L15.6185 7.97545C15.6506 7.37682 15.3093 6.82307 14.7631 6.56738L14.6511 6.5203L10.0682 4.8017Z" fill="url(#paint0_linear_26_70)"/>
<defs>
<linearGradient id="paint0_linear_26_70" x1="19.5434" y1="20" x2="0.456627" y2="-1.15676e-07" gradientUnits="userSpaceOnUse">
<stop stop-color="#FFC600"/>
<stop offset="1" stop-color="#FF7500"/>
</linearGradient>
</defs>
</svg>
