<svg width="20" height="20" viewBox="0 0 20 20" fill="none" xmlns="http://www.w3.org/2000/svg">
<path fill-rule="evenodd" clip-rule="evenodd" d="M9.72435 0.196233L18.0612 3.32253C19.2833 3.78082 20.0643 4.95575 19.9958 6.23283L19.5285 14.9446C19.46 16.2216 18.5575 17.3104 17.293 17.6414L8.66734 19.8992C7.40288 20.2302 6.06406 19.7281 5.35109 18.6556L0.487495 11.3393C-0.225474 10.2668 -0.150421 8.8678 0.673401 7.87396L6.2932 1.09437C7.11702 0.100534 8.50223 -0.262058 9.72435 0.196233ZM10.0682 4.80171C9.49531 4.58689 8.85078 4.7328 8.43304 5.16133L8.35261 5.25078L5.26328 8.97767C4.87883 9.44146 4.82051 10.0817 5.10427 10.601L5.17033 10.7103L7.84396 14.7323C8.17816 15.235 8.7874 15.4871 9.38319 15.3803L9.50208 15.3541L14.2438 14.1129C14.8365 13.9577 15.2702 13.4696 15.3503 12.883L15.3615 12.7645L15.6185 7.97544C15.6506 7.37681 15.3093 6.82307 14.7631 6.56738L14.6511 6.52029L10.0682 4.80171Z" fill="#97D700"/>
</svg>
